<mxfile host="app.diagrams.net" modified="2023-09-26T09:53:42.596Z" agent="Mozilla/5.0 (Windows NT 10.0; Win64; x64) AppleWebKit/537.36 (KHTML, like Gecko) Chrome/117.0.0.0 Safari/537.36" etag="Bh1yQah-NVzugKjcU1ln" version="21.8.2" type="github">
  <diagram id="R2lEEEUBdFMjLlhIrx00" name="Page-1">
    <mxGraphModel dx="724" dy="1490" grid="1" gridSize="10" guides="1" tooltips="1" connect="1" arrows="1" fold="1" page="1" pageScale="1" pageWidth="850" pageHeight="1100" math="0" shadow="0" extFonts="Permanent Marker^https://fonts.googleapis.com/css?family=Permanent+Marker">
      <root>
        <mxCell id="0" />
        <mxCell id="1" parent="0" />
        <mxCell id="dXp5-8NFAsFLmCo9gUIu-91" value="" style="group" vertex="1" connectable="0" parent="1">
          <mxGeometry x="70" y="-220" width="850" height="960" as="geometry" />
        </mxCell>
        <mxCell id="dXp5-8NFAsFLmCo9gUIu-18" value="" style="group" vertex="1" connectable="0" parent="dXp5-8NFAsFLmCo9gUIu-91">
          <mxGeometry x="10" y="100" width="240" height="180" as="geometry" />
        </mxCell>
        <mxCell id="dXp5-8NFAsFLmCo9gUIu-1" value="TEAM" style="rounded=0;whiteSpace=wrap;html=1;" vertex="1" parent="dXp5-8NFAsFLmCo9gUIu-18">
          <mxGeometry x="120" y="120" width="120" height="60" as="geometry" />
        </mxCell>
        <mxCell id="dXp5-8NFAsFLmCo9gUIu-5" value="&lt;u&gt;TeamID&lt;/u&gt;" style="ellipse;whiteSpace=wrap;html=1;" vertex="1" parent="dXp5-8NFAsFLmCo9gUIu-18">
          <mxGeometry y="155" width="70" height="50" as="geometry" />
        </mxCell>
        <mxCell id="dXp5-8NFAsFLmCo9gUIu-6" value="TeamName" style="ellipse;whiteSpace=wrap;html=1;" vertex="1" parent="dXp5-8NFAsFLmCo9gUIu-18">
          <mxGeometry y="35" width="70" height="50" as="geometry" />
        </mxCell>
        <mxCell id="dXp5-8NFAsFLmCo9gUIu-7" value="Location" style="ellipse;whiteSpace=wrap;html=1;" vertex="1" parent="dXp5-8NFAsFLmCo9gUIu-18">
          <mxGeometry y="95" width="70" height="50" as="geometry" />
        </mxCell>
        <mxCell id="dXp5-8NFAsFLmCo9gUIu-80" value="" style="endArrow=none;html=1;rounded=0;entryX=1.015;entryY=0.419;entryDx=0;entryDy=0;entryPerimeter=0;" edge="1" parent="dXp5-8NFAsFLmCo9gUIu-18" source="dXp5-8NFAsFLmCo9gUIu-1" target="dXp5-8NFAsFLmCo9gUIu-5">
          <mxGeometry width="50" height="50" relative="1" as="geometry">
            <mxPoint x="-30.710678118654755" y="320" as="sourcePoint" />
            <mxPoint x="49.289321881345245" y="150" as="targetPoint" />
          </mxGeometry>
        </mxCell>
        <mxCell id="dXp5-8NFAsFLmCo9gUIu-81" value="" style="endArrow=none;html=1;rounded=0;entryX=1;entryY=0.5;entryDx=0;entryDy=0;" edge="1" parent="dXp5-8NFAsFLmCo9gUIu-18" source="dXp5-8NFAsFLmCo9gUIu-1" target="dXp5-8NFAsFLmCo9gUIu-7">
          <mxGeometry width="50" height="50" relative="1" as="geometry">
            <mxPoint x="-30.710678118654755" y="320" as="sourcePoint" />
            <mxPoint x="49.289321881345245" y="150" as="targetPoint" />
          </mxGeometry>
        </mxCell>
        <mxCell id="dXp5-8NFAsFLmCo9gUIu-82" value="" style="endArrow=none;html=1;rounded=0;entryX=0.983;entryY=0.645;entryDx=0;entryDy=0;entryPerimeter=0;" edge="1" parent="dXp5-8NFAsFLmCo9gUIu-18" source="dXp5-8NFAsFLmCo9gUIu-1" target="dXp5-8NFAsFLmCo9gUIu-6">
          <mxGeometry width="50" height="50" relative="1" as="geometry">
            <mxPoint x="-30.710678118654755" y="320" as="sourcePoint" />
            <mxPoint x="49.289321881345245" y="150" as="targetPoint" />
          </mxGeometry>
        </mxCell>
        <mxCell id="dXp5-8NFAsFLmCo9gUIu-20" value="Plays_For" style="rhombus;whiteSpace=wrap;html=1;" vertex="1" parent="dXp5-8NFAsFLmCo9gUIu-91">
          <mxGeometry x="130" y="360" width="120" height="80" as="geometry" />
        </mxCell>
        <mxCell id="dXp5-8NFAsFLmCo9gUIu-22" value="StartDate" style="ellipse;whiteSpace=wrap;html=1;" vertex="1" parent="dXp5-8NFAsFLmCo9gUIu-91">
          <mxGeometry x="10" y="340" width="70" height="50" as="geometry" />
        </mxCell>
        <mxCell id="dXp5-8NFAsFLmCo9gUIu-23" value="EndDate" style="ellipse;whiteSpace=wrap;html=1;" vertex="1" parent="dXp5-8NFAsFLmCo9gUIu-91">
          <mxGeometry x="10" y="410" width="70" height="50" as="geometry" />
        </mxCell>
        <mxCell id="dXp5-8NFAsFLmCo9gUIu-24" value="Opponents" style="rhombus;whiteSpace=wrap;html=1;" vertex="1" parent="dXp5-8NFAsFLmCo9gUIu-91">
          <mxGeometry x="130" width="120" height="80" as="geometry" />
        </mxCell>
        <mxCell id="dXp5-8NFAsFLmCo9gUIu-52" value="" style="group" vertex="1" connectable="0" parent="dXp5-8NFAsFLmCo9gUIu-91">
          <mxGeometry y="540" width="300" height="420" as="geometry" />
        </mxCell>
        <mxCell id="dXp5-8NFAsFLmCo9gUIu-16" value="" style="group" vertex="1" connectable="0" parent="dXp5-8NFAsFLmCo9gUIu-52">
          <mxGeometry width="300" height="280" as="geometry" />
        </mxCell>
        <mxCell id="dXp5-8NFAsFLmCo9gUIu-2" value="PLAYER" style="rounded=0;whiteSpace=wrap;html=1;" vertex="1" parent="dXp5-8NFAsFLmCo9gUIu-16">
          <mxGeometry x="130" width="120" height="60" as="geometry" />
        </mxCell>
        <mxCell id="dXp5-8NFAsFLmCo9gUIu-8" value="&lt;u&gt;PlayerID&lt;/u&gt;" style="ellipse;whiteSpace=wrap;html=1;" vertex="1" parent="dXp5-8NFAsFLmCo9gUIu-16">
          <mxGeometry x="10" y="-10" width="70" height="50" as="geometry" />
        </mxCell>
        <mxCell id="dXp5-8NFAsFLmCo9gUIu-9" value="Position" style="ellipse;whiteSpace=wrap;html=1;" vertex="1" parent="dXp5-8NFAsFLmCo9gUIu-16">
          <mxGeometry x="10" y="110" width="70" height="50" as="geometry" />
        </mxCell>
        <mxCell id="dXp5-8NFAsFLmCo9gUIu-25" value="Name" style="ellipse;whiteSpace=wrap;html=1;" vertex="1" parent="dXp5-8NFAsFLmCo9gUIu-16">
          <mxGeometry x="10" y="50" width="70" height="50" as="geometry" />
        </mxCell>
        <mxCell id="dXp5-8NFAsFLmCo9gUIu-35" value="" style="group" vertex="1" connectable="0" parent="dXp5-8NFAsFLmCo9gUIu-16">
          <mxGeometry x="100" y="120" width="180" height="160" as="geometry" />
        </mxCell>
        <mxCell id="dXp5-8NFAsFLmCo9gUIu-27" value="" style="rhombus;whiteSpace=wrap;html=1;" vertex="1" parent="dXp5-8NFAsFLmCo9gUIu-35">
          <mxGeometry width="180" height="130" as="geometry" />
        </mxCell>
        <mxCell id="dXp5-8NFAsFLmCo9gUIu-34" value="DEPENDENTS_OF" style="rhombus;whiteSpace=wrap;html=1;" vertex="1" parent="dXp5-8NFAsFLmCo9gUIu-35">
          <mxGeometry x="20" y="15" width="140" height="100.01" as="geometry" />
        </mxCell>
        <mxCell id="dXp5-8NFAsFLmCo9gUIu-100" value="N" style="text;html=1;strokeColor=none;fillColor=none;align=center;verticalAlign=middle;whiteSpace=wrap;rounded=0;" vertex="1" parent="dXp5-8NFAsFLmCo9gUIu-35">
          <mxGeometry x="50" y="130" width="60" height="30" as="geometry" />
        </mxCell>
        <mxCell id="dXp5-8NFAsFLmCo9gUIu-65" value="" style="endArrow=none;html=1;rounded=0;entryX=1;entryY=0.5;entryDx=0;entryDy=0;" edge="1" parent="dXp5-8NFAsFLmCo9gUIu-16" source="dXp5-8NFAsFLmCo9gUIu-2" target="dXp5-8NFAsFLmCo9gUIu-8">
          <mxGeometry width="50" height="50" relative="1" as="geometry">
            <mxPoint x="-10.710678118654755" y="-240" as="sourcePoint" />
            <mxPoint x="59.289321881345245" y="30" as="targetPoint" />
          </mxGeometry>
        </mxCell>
        <mxCell id="dXp5-8NFAsFLmCo9gUIu-66" value="" style="endArrow=none;html=1;rounded=0;entryX=0.983;entryY=0.328;entryDx=0;entryDy=0;entryPerimeter=0;" edge="1" parent="dXp5-8NFAsFLmCo9gUIu-16" source="dXp5-8NFAsFLmCo9gUIu-2" target="dXp5-8NFAsFLmCo9gUIu-25">
          <mxGeometry width="50" height="50" relative="1" as="geometry">
            <mxPoint x="-10.710678118654755" y="-240" as="sourcePoint" />
            <mxPoint x="59.289321881345245" y="30" as="targetPoint" />
          </mxGeometry>
        </mxCell>
        <mxCell id="dXp5-8NFAsFLmCo9gUIu-67" value="" style="endArrow=none;html=1;rounded=0;entryX=0.975;entryY=0.331;entryDx=0;entryDy=0;entryPerimeter=0;" edge="1" parent="dXp5-8NFAsFLmCo9gUIu-16" source="dXp5-8NFAsFLmCo9gUIu-2" target="dXp5-8NFAsFLmCo9gUIu-9">
          <mxGeometry width="50" height="50" relative="1" as="geometry">
            <mxPoint x="-10.710678118654755" y="-240" as="sourcePoint" />
            <mxPoint x="59.289321881345245" y="30" as="targetPoint" />
          </mxGeometry>
        </mxCell>
        <mxCell id="dXp5-8NFAsFLmCo9gUIu-69" value="" style="endArrow=none;html=1;rounded=0;entryX=0.5;entryY=0;entryDx=0;entryDy=0;" edge="1" parent="dXp5-8NFAsFLmCo9gUIu-16" source="dXp5-8NFAsFLmCo9gUIu-2" target="dXp5-8NFAsFLmCo9gUIu-27">
          <mxGeometry width="50" height="50" relative="1" as="geometry">
            <mxPoint x="120" y="-210" as="sourcePoint" />
            <mxPoint x="190" y="110" as="targetPoint" />
          </mxGeometry>
        </mxCell>
        <mxCell id="dXp5-8NFAsFLmCo9gUIu-101" value="1" style="text;html=1;strokeColor=none;fillColor=none;align=center;verticalAlign=middle;whiteSpace=wrap;rounded=0;" vertex="1" parent="dXp5-8NFAsFLmCo9gUIu-16">
          <mxGeometry x="150" y="80" width="60" height="30" as="geometry" />
        </mxCell>
        <mxCell id="dXp5-8NFAsFLmCo9gUIu-45" value="DEPENDENT" style="rounded=0;whiteSpace=wrap;html=1;" vertex="1" parent="dXp5-8NFAsFLmCo9gUIu-52">
          <mxGeometry x="127.5" y="280" width="120" height="60" as="geometry" />
        </mxCell>
        <mxCell id="dXp5-8NFAsFLmCo9gUIu-46" value="Name" style="ellipse;whiteSpace=wrap;html=1;" vertex="1" parent="dXp5-8NFAsFLmCo9gUIu-52">
          <mxGeometry x="92.5" y="370" width="70" height="50" as="geometry" />
        </mxCell>
        <mxCell id="dXp5-8NFAsFLmCo9gUIu-47" value="Relationship" style="ellipse;whiteSpace=wrap;html=1;" vertex="1" parent="dXp5-8NFAsFLmCo9gUIu-52">
          <mxGeometry x="217.5" y="370" width="70" height="50" as="geometry" />
        </mxCell>
        <mxCell id="dXp5-8NFAsFLmCo9gUIu-71" value="" style="endArrow=none;html=1;rounded=0;entryX=0.5;entryY=1;entryDx=0;entryDy=0;" edge="1" parent="dXp5-8NFAsFLmCo9gUIu-52" source="dXp5-8NFAsFLmCo9gUIu-45" target="dXp5-8NFAsFLmCo9gUIu-27">
          <mxGeometry width="50" height="50" relative="1" as="geometry">
            <mxPoint x="117.5" y="-60.710678118654755" as="sourcePoint" />
            <mxPoint x="190" y="260" as="targetPoint" />
          </mxGeometry>
        </mxCell>
        <mxCell id="dXp5-8NFAsFLmCo9gUIu-73" value="" style="endArrow=none;html=1;rounded=0;" edge="1" parent="dXp5-8NFAsFLmCo9gUIu-52" source="dXp5-8NFAsFLmCo9gUIu-45" target="dXp5-8NFAsFLmCo9gUIu-46">
          <mxGeometry width="50" height="50" relative="1" as="geometry">
            <mxPoint x="117.5" y="70" as="sourcePoint" />
            <mxPoint x="187.5" y="410.71067811865476" as="targetPoint" />
          </mxGeometry>
        </mxCell>
        <mxCell id="dXp5-8NFAsFLmCo9gUIu-74" value="" style="endArrow=none;html=1;rounded=0;" edge="1" parent="dXp5-8NFAsFLmCo9gUIu-52" source="dXp5-8NFAsFLmCo9gUIu-45" target="dXp5-8NFAsFLmCo9gUIu-47">
          <mxGeometry width="50" height="50" relative="1" as="geometry">
            <mxPoint x="117.5" y="70" as="sourcePoint" />
            <mxPoint x="187.5" y="410.71067811865476" as="targetPoint" />
          </mxGeometry>
        </mxCell>
        <mxCell id="dXp5-8NFAsFLmCo9gUIu-53" value="PARTICIPATES" style="rhombus;whiteSpace=wrap;html=1;" vertex="1" parent="dXp5-8NFAsFLmCo9gUIu-91">
          <mxGeometry x="380" y="360" width="120" height="80" as="geometry" />
        </mxCell>
        <mxCell id="dXp5-8NFAsFLmCo9gUIu-3" value="GAME&lt;br&gt;" style="rounded=0;whiteSpace=wrap;html=1;" vertex="1" parent="dXp5-8NFAsFLmCo9gUIu-91">
          <mxGeometry x="620" y="370" width="120" height="60" as="geometry" />
        </mxCell>
        <mxCell id="dXp5-8NFAsFLmCo9gUIu-10" value="&lt;u&gt;GameID&lt;/u&gt;" style="ellipse;whiteSpace=wrap;html=1;" vertex="1" parent="dXp5-8NFAsFLmCo9gUIu-91">
          <mxGeometry x="645" y="280" width="70" height="50" as="geometry" />
        </mxCell>
        <mxCell id="dXp5-8NFAsFLmCo9gUIu-12" value="Date" style="ellipse;whiteSpace=wrap;html=1;" vertex="1" parent="dXp5-8NFAsFLmCo9gUIu-91">
          <mxGeometry x="780" y="460" width="70" height="50" as="geometry" />
        </mxCell>
        <mxCell id="dXp5-8NFAsFLmCo9gUIu-13" value="Location" style="ellipse;whiteSpace=wrap;html=1;" vertex="1" parent="dXp5-8NFAsFLmCo9gUIu-91">
          <mxGeometry x="780" y="375" width="70" height="50" as="geometry" />
        </mxCell>
        <mxCell id="dXp5-8NFAsFLmCo9gUIu-14" value="Result" style="ellipse;whiteSpace=wrap;html=1;" vertex="1" parent="dXp5-8NFAsFLmCo9gUIu-91">
          <mxGeometry x="780" y="280" width="70" height="50" as="geometry" />
        </mxCell>
        <mxCell id="dXp5-8NFAsFLmCo9gUIu-56" value="" style="endArrow=none;dashed=1;html=1;dashPattern=1 3;strokeWidth=2;rounded=0;" edge="1" parent="dXp5-8NFAsFLmCo9gUIu-91">
          <mxGeometry width="50" height="50" relative="1" as="geometry">
            <mxPoint x="115" y="945" as="sourcePoint" />
            <mxPoint x="145" y="945" as="targetPoint" />
          </mxGeometry>
        </mxCell>
        <mxCell id="dXp5-8NFAsFLmCo9gUIu-57" value="CoachName" style="ellipse;whiteSpace=wrap;html=1;" vertex="1" parent="dXp5-8NFAsFLmCo9gUIu-91">
          <mxGeometry x="10" y="75" width="70" height="50" as="geometry" />
        </mxCell>
        <mxCell id="dXp5-8NFAsFLmCo9gUIu-61" value="" style="endArrow=none;html=1;rounded=0;entryX=0;entryY=0;entryDx=0;entryDy=0;" edge="1" parent="dXp5-8NFAsFLmCo9gUIu-91" source="dXp5-8NFAsFLmCo9gUIu-1" target="dXp5-8NFAsFLmCo9gUIu-53">
          <mxGeometry width="50" height="50" relative="1" as="geometry">
            <mxPoint x="170" y="420" as="sourcePoint" />
            <mxPoint x="320.71067811865476" y="250" as="targetPoint" />
          </mxGeometry>
        </mxCell>
        <mxCell id="dXp5-8NFAsFLmCo9gUIu-62" value="" style="endArrow=none;html=1;rounded=0;entryX=0;entryY=1;entryDx=0;entryDy=0;" edge="1" parent="dXp5-8NFAsFLmCo9gUIu-91" source="dXp5-8NFAsFLmCo9gUIu-2" target="dXp5-8NFAsFLmCo9gUIu-53">
          <mxGeometry width="50" height="50" relative="1" as="geometry">
            <mxPoint x="180" y="300" as="sourcePoint" />
            <mxPoint x="320.71067811865476" y="570" as="targetPoint" />
          </mxGeometry>
        </mxCell>
        <mxCell id="dXp5-8NFAsFLmCo9gUIu-63" value="" style="endArrow=none;html=1;rounded=0;entryX=0;entryY=0.5;entryDx=0;entryDy=0;" edge="1" parent="dXp5-8NFAsFLmCo9gUIu-91">
          <mxGeometry width="50" height="50" relative="1" as="geometry">
            <mxPoint x="490" y="393" as="sourcePoint" />
            <mxPoint x="620" y="395" as="targetPoint" />
          </mxGeometry>
        </mxCell>
        <mxCell id="dXp5-8NFAsFLmCo9gUIu-76" value="" style="endArrow=none;html=1;rounded=0;" edge="1" parent="dXp5-8NFAsFLmCo9gUIu-91" source="dXp5-8NFAsFLmCo9gUIu-20" target="dXp5-8NFAsFLmCo9gUIu-22">
          <mxGeometry width="50" height="50" relative="1" as="geometry">
            <mxPoint x="59.289321881345245" y="450" as="sourcePoint" />
            <mxPoint x="59.289321881345245" y="400" as="targetPoint" />
          </mxGeometry>
        </mxCell>
        <mxCell id="dXp5-8NFAsFLmCo9gUIu-77" value="" style="endArrow=none;html=1;rounded=0;entryX=0.999;entryY=0.596;entryDx=0;entryDy=0;entryPerimeter=0;" edge="1" parent="dXp5-8NFAsFLmCo9gUIu-91" source="dXp5-8NFAsFLmCo9gUIu-20" target="dXp5-8NFAsFLmCo9gUIu-23">
          <mxGeometry width="50" height="50" relative="1" as="geometry">
            <mxPoint x="59.289321881345245" y="450" as="sourcePoint" />
            <mxPoint x="59.289321881345245" y="400" as="targetPoint" />
          </mxGeometry>
        </mxCell>
        <mxCell id="dXp5-8NFAsFLmCo9gUIu-78" value="" style="endArrow=none;html=1;rounded=0;entryX=0.5;entryY=0;entryDx=0;entryDy=0;" edge="1" parent="dXp5-8NFAsFLmCo9gUIu-91" source="dXp5-8NFAsFLmCo9gUIu-1" target="dXp5-8NFAsFLmCo9gUIu-20">
          <mxGeometry width="50" height="50" relative="1" as="geometry">
            <mxPoint x="110" y="450" as="sourcePoint" />
            <mxPoint x="190" y="350.71067811865476" as="targetPoint" />
          </mxGeometry>
        </mxCell>
        <mxCell id="dXp5-8NFAsFLmCo9gUIu-79" value="" style="endArrow=none;html=1;rounded=0;entryX=0.5;entryY=0;entryDx=0;entryDy=0;" edge="1" parent="dXp5-8NFAsFLmCo9gUIu-91" source="dXp5-8NFAsFLmCo9gUIu-20" target="dXp5-8NFAsFLmCo9gUIu-2">
          <mxGeometry width="50" height="50" relative="1" as="geometry">
            <mxPoint x="190" y="490" as="sourcePoint" />
            <mxPoint x="190" y="510.71067811865476" as="targetPoint" />
          </mxGeometry>
        </mxCell>
        <mxCell id="dXp5-8NFAsFLmCo9gUIu-83" value="" style="endArrow=none;html=1;rounded=0;entryX=0.991;entryY=0.664;entryDx=0;entryDy=0;entryPerimeter=0;" edge="1" parent="dXp5-8NFAsFLmCo9gUIu-91" source="dXp5-8NFAsFLmCo9gUIu-1" target="dXp5-8NFAsFLmCo9gUIu-57">
          <mxGeometry width="50" height="50" relative="1" as="geometry">
            <mxPoint x="-20.710678118654755" y="420" as="sourcePoint" />
            <mxPoint x="59.289321881345245" y="250" as="targetPoint" />
          </mxGeometry>
        </mxCell>
        <mxCell id="dXp5-8NFAsFLmCo9gUIu-84" value="" style="endArrow=none;html=1;rounded=0;entryX=0;entryY=0.5;entryDx=0;entryDy=0;" edge="1" parent="dXp5-8NFAsFLmCo9gUIu-91" source="dXp5-8NFAsFLmCo9gUIu-1" target="dXp5-8NFAsFLmCo9gUIu-24">
          <mxGeometry width="50" height="50" relative="1" as="geometry">
            <mxPoint x="110" y="319.28932188134524" as="sourcePoint" />
            <mxPoint x="190" y="149.28932188134524" as="targetPoint" />
          </mxGeometry>
        </mxCell>
        <mxCell id="dXp5-8NFAsFLmCo9gUIu-85" value="" style="endArrow=none;html=1;rounded=0;entryX=1;entryY=0.5;entryDx=0;entryDy=0;" edge="1" parent="dXp5-8NFAsFLmCo9gUIu-91" source="dXp5-8NFAsFLmCo9gUIu-1" target="dXp5-8NFAsFLmCo9gUIu-24">
          <mxGeometry width="50" height="50" relative="1" as="geometry">
            <mxPoint x="110" y="319.28932188134524" as="sourcePoint" />
            <mxPoint x="190" y="149.28932188134524" as="targetPoint" />
          </mxGeometry>
        </mxCell>
        <mxCell id="dXp5-8NFAsFLmCo9gUIu-86" value="" style="endArrow=none;html=1;rounded=0;" edge="1" parent="dXp5-8NFAsFLmCo9gUIu-91" source="dXp5-8NFAsFLmCo9gUIu-3">
          <mxGeometry width="50" height="50" relative="1" as="geometry">
            <mxPoint x="680" y="349.28932188134524" as="sourcePoint" />
            <mxPoint x="680" y="330" as="targetPoint" />
          </mxGeometry>
        </mxCell>
        <mxCell id="dXp5-8NFAsFLmCo9gUIu-87" value="" style="endArrow=none;html=1;rounded=0;" edge="1" parent="dXp5-8NFAsFLmCo9gUIu-91" source="dXp5-8NFAsFLmCo9gUIu-3" target="dXp5-8NFAsFLmCo9gUIu-14">
          <mxGeometry width="50" height="50" relative="1" as="geometry">
            <mxPoint x="680" y="349.28932188134524" as="sourcePoint" />
            <mxPoint x="680" y="299.28932188134524" as="targetPoint" />
          </mxGeometry>
        </mxCell>
        <mxCell id="dXp5-8NFAsFLmCo9gUIu-88" value="" style="endArrow=none;html=1;rounded=0;" edge="1" parent="dXp5-8NFAsFLmCo9gUIu-91" source="dXp5-8NFAsFLmCo9gUIu-3" target="dXp5-8NFAsFLmCo9gUIu-13">
          <mxGeometry width="50" height="50" relative="1" as="geometry">
            <mxPoint x="740" y="450" as="sourcePoint" />
            <mxPoint x="810.7106781186548" y="400" as="targetPoint" />
          </mxGeometry>
        </mxCell>
        <mxCell id="dXp5-8NFAsFLmCo9gUIu-89" value="" style="endArrow=none;html=1;rounded=0;" edge="1" parent="dXp5-8NFAsFLmCo9gUIu-91" source="dXp5-8NFAsFLmCo9gUIu-3" target="dXp5-8NFAsFLmCo9gUIu-12">
          <mxGeometry width="50" height="50" relative="1" as="geometry">
            <mxPoint x="680" y="480" as="sourcePoint" />
            <mxPoint x="680" y="500.71067811865476" as="targetPoint" />
          </mxGeometry>
        </mxCell>
        <mxCell id="dXp5-8NFAsFLmCo9gUIu-93" value="N&lt;br&gt;Away" style="text;html=1;strokeColor=none;fillColor=none;align=center;verticalAlign=middle;whiteSpace=wrap;rounded=0;" vertex="1" parent="dXp5-8NFAsFLmCo9gUIu-91">
          <mxGeometry x="214" y="100" width="60" height="30" as="geometry" />
        </mxCell>
        <mxCell id="dXp5-8NFAsFLmCo9gUIu-92" value="1&lt;br&gt;Home" style="text;html=1;strokeColor=none;fillColor=none;align=center;verticalAlign=middle;whiteSpace=wrap;rounded=0;" vertex="1" parent="dXp5-8NFAsFLmCo9gUIu-91">
          <mxGeometry x="105" y="100" width="60" height="30" as="geometry" />
        </mxCell>
        <mxCell id="dXp5-8NFAsFLmCo9gUIu-94" value="N" style="text;html=1;strokeColor=none;fillColor=none;align=center;verticalAlign=middle;whiteSpace=wrap;rounded=0;" vertex="1" parent="dXp5-8NFAsFLmCo9gUIu-91">
          <mxGeometry x="150" y="465" width="60" height="30" as="geometry" />
        </mxCell>
        <mxCell id="dXp5-8NFAsFLmCo9gUIu-95" value="1" style="text;html=1;strokeColor=none;fillColor=none;align=center;verticalAlign=middle;whiteSpace=wrap;rounded=0;" vertex="1" parent="dXp5-8NFAsFLmCo9gUIu-91">
          <mxGeometry x="150" y="310" width="60" height="30" as="geometry" />
        </mxCell>
        <mxCell id="dXp5-8NFAsFLmCo9gUIu-97" value="" style="endArrow=none;html=1;rounded=0;exitX=0.928;exitY=0.614;exitDx=0;exitDy=0;exitPerimeter=0;" edge="1" parent="dXp5-8NFAsFLmCo9gUIu-91">
          <mxGeometry width="50" height="50" relative="1" as="geometry">
            <mxPoint x="491.3599999999999" y="405.9999999999999" as="sourcePoint" />
            <mxPoint x="620" y="406.88" as="targetPoint" />
          </mxGeometry>
        </mxCell>
        <mxCell id="dXp5-8NFAsFLmCo9gUIu-99" value="" style="endArrow=none;html=1;rounded=0;entryX=0.154;entryY=0.321;entryDx=0;entryDy=0;entryPerimeter=0;" edge="1" parent="dXp5-8NFAsFLmCo9gUIu-91">
          <mxGeometry width="50" height="50" relative="1" as="geometry">
            <mxPoint x="221" y="280" as="sourcePoint" />
            <mxPoint x="399.48" y="385.68000000000006" as="targetPoint" />
          </mxGeometry>
        </mxCell>
      </root>
    </mxGraphModel>
  </diagram>
</mxfile>
